<svg width="24px"  height="24px"  viewBox="0 0 25 24" fill="none" xmlns="http://www.w3.org/2000/svg">
<path d="M7.32676 16.0273H19.7205L19.7273 19.8064C19.7254 20.467 19.1892 21.0012 18.5286 21.0012H7.32676C5.9539 21.0012 4.83984 19.8881 4.83984 18.5143C4.83984 17.1404 5.9539 16.0273 7.32676 16.0273Z" stroke="#000000"  stroke-width="2"  stroke-linecap="round" stroke-linejoin="round"/>
<path d="M4.83984 18.5131V5.59103C4.83984 4.15978 5.99963 3 7.43087 3H18.5218C19.1844 3 19.7205 3.53708 19.7205 4.1987V16.0262" stroke="#000000"  stroke-width="2"  stroke-linecap="round" stroke-linejoin="round"/>
<path fill-rule="evenodd" clip-rule="evenodd" d="M15.1677 6.47656H9.53414C8.87738 6.47656 8.46484 6.94164 8.46484 7.60035V9.37797C8.46484 10.0357 8.87544 10.5018 9.53414 10.5018H15.1677C15.8273 10.5018 16.237 10.0357 16.237 9.37797V7.60035C16.237 6.94164 15.8273 6.47656 15.1677 6.47656Z" stroke="#000000"  stroke-width="2"  stroke-linecap="round" stroke-linejoin="round"/>
</svg>